<svg width="20" height="20" viewBox="0 0 20 20" fill="none" xmlns="http://www.w3.org/2000/svg">
<path d="M6.4631 18.5877H7.79474V1.42314H6.4631V18.5877ZM4.82612 5.77947C4.95618 5.77947 5.06927 5.71791 5.16539 5.59479C5.26152 5.46442 5.30958 5.32319 5.30958 5.1711C5.30958 5.00453 5.26152 4.8633 5.16539 4.74742C5.06927 4.6243 4.95618 4.56274 4.82612 4.56274H3.01103C2.88097 4.56274 2.76788 4.6243 2.67176 4.74742C2.57563 4.8633 2.52757 5.00453 2.52757 5.1711C2.52757 5.32319 2.57563 5.46442 2.67176 5.59479C2.76788 5.71791 2.88097 5.77947 3.01103 5.77947H4.82612ZM4.82612 8.59316C4.95618 8.59316 5.06927 8.5316 5.16539 8.40847C5.26152 8.28535 5.30958 8.1405 5.30958 7.97393C5.30958 7.81459 5.26152 7.67699 5.16539 7.56111C5.06927 7.43799 4.95618 7.37643 4.82612 7.37643H3.01103C2.88097 7.37643 2.76788 7.43799 2.67176 7.56111C2.57563 7.67699 2.52757 7.81459 2.52757 7.97393C2.52757 8.1405 2.57563 8.28535 2.67176 8.40847C2.76788 8.5316 2.88097 8.59316 3.01103 8.59316H4.82612ZM4.82612 11.396C4.95618 11.396 5.06927 11.338 5.16539 11.2222C5.26152 11.099 5.30958 10.9578 5.30958 10.7985C5.30958 10.6319 5.26152 10.4907 5.16539 10.3748C5.06927 10.2517 4.95618 10.1901 4.82612 10.1901H3.01103C2.88097 10.1901 2.76788 10.2517 2.67176 10.3748C2.57563 10.4907 2.52757 10.6319 2.52757 10.7985C2.52757 10.9578 2.57563 11.099 2.67176 11.2222C2.76788 11.338 2.88097 11.396 3.01103 11.396H4.82612ZM2.66327 20H17.3367C18.2301 20 18.8974 19.7175 19.3384 19.1526C19.7795 18.595 20 17.7548 20 16.6323V3.36773C20 2.24516 19.7795 1.40503 19.3384 0.847366C18.8974 0.282455 18.2301 0 17.3367 0H2.66327C1.77552 0 1.10828 0.282455 0.661578 0.847366C0.220526 1.40503 0 2.24516 0 3.36773V16.6323C0 17.7548 0.220526 18.595 0.661578 19.1526C1.10828 19.7175 1.77552 20 2.66327 20ZM2.68024 18.2509C2.25615 18.2509 1.93102 18.1097 1.70483 17.8273C1.47865 17.5376 1.36556 17.1103 1.36556 16.5454V3.45464C1.36556 2.88973 1.47865 2.46605 1.70483 2.1836C1.93102 1.8939 2.25615 1.74905 2.68024 1.74905H17.3198C17.7382 1.74905 18.0605 1.8939 18.2867 2.1836C18.5185 2.46605 18.6344 2.88973 18.6344 3.45464V16.5454C18.6344 17.1103 18.5185 17.5376 18.2867 17.8273C18.0605 18.1097 17.7382 18.2509 17.3198 18.2509H2.68024Z" fill="#929292"/>
</svg>
